<?xml version="1.0" encoding="UTF-8"?>
<svg width="1200pt" height="1200pt" version="1.1" viewBox="0 0 1200 1200" xmlns="http://www.w3.org/2000/svg">
 <path d="m355.55 1091.3c-0.23438 4.3594 0.32812 8.7656 0.9375 12.938l-139.36 0.046876c-28.359 0-51.375-23.016-51.375-51.234v-212.86c15.609 11.953 38.25 11.906 53.016-1.3594 11.156 30 26.859 72.75 38.156 104.25 7.875 22.031 22.078 41.625 40.594 55.875-29.906 42.656 6.3281 100.59 58.031 92.344zm33.141-64.594 5.2969-7.9219c0.14062-0.14063 0.14062-0.28125 0.14062-0.42188 4.4062-6 9.8906-13.641 10.922-21.141 2.0625-12.094-3.4219-24.234-13.219-31.359-0.14062 0-0.14062 0-0.14062-0.14062-13.875-9.7969-34.641-5.8594-44.016 8.2969h-0.14062c-7.0781 11.203-23.578 33.188-30.141 44.812-12.047 22.031 9.375 50.953 34.219 45.375 17.156-1.6875 27.75-25.781 36.938-37.594zm28.078 7.125-16.781 24.516c-4.9219 8.0156-16.312 20.953-16.875 30.797-4.3125 32.672 38.812 49.641 57.656 22.219l9.5156-13.922v-0.14063c0.46875-0.1875 11.625-17.016 12.281-17.859 4.2656-6.1406 10.5-14.531 11.438-21.938 5.5781-32.25-38.156-50.203-57.234-23.672zm129.05 28.453c-14.156-9.5625-34.453-5.7656-44.156 8.2969-2.625 3.75-7.8281 11.391-10.359 15.281h-0.14062c-2.4844 3.8438-15.562 22.781-18.375 27-20.625 35.016 29.625 67.969 53.297 34.594 4.7344-8.4375 33.234-44.016 33.234-53.812 1.8281-12.141-3.6562-24.375-13.5-31.359zm45.891 38.438c-4.5 4.875-10.641 15.094-14.578 20.438v0.14062l-1.5 2.0625-14.297 21c-24.281 38.203 33.141 71.438 55.172 31.875v-0.14062l25.219-36.797c4.3125-5.9531 6.1406-13.594 5.2969-21-2.5312-27.516-36.938-37.969-55.312-17.578zm82.875 20.578c1.5938 21.234-16.266 41.719-27.234 58.172 14.859 8.1562 33.797 3.2812 42.656-11.438 10.734-17.109 1.5469-37.781-15.422-46.734zm310.69-279.24c-8.7188 40.922-8.5312 79.875-33.797 113.11v0.14062c10.312 27.234-3.6094 61.312-30 73.031 21.562 18.375 27.234 51.938 11.578 75.891h49.875c28.219 0 51.234-23.016 51.234-51.234l0.046875-212.81c-13.922 10.688-34.406 12.141-48.938 1.875zm93.75-79.453-135.84-210.37c-0.89063-1.5469-2.4375-2.6719-3.6562-3.7969-4.5938-2.5781-10.406-3.375-15.141-0.28125 0 0-59.438 38.297-59.391 38.297-5.25 4.2656-7.9688 11.203-4.6406 17.438 0.14063 0 0.14063 0.14063 0.14063 0.28125l128.39 198.79c0.28125 0.84375 3 4.6875 3.5625 5.5781 1.7812 2.6719 5.1562 8.9531 7.9219 10.641 0.14062 0 0.28125 0.28125 0.42188 0.28125 4.2656 3.0469 10.547 3.1406 15 0.28125l24.797-16.078h0.14062l34.453-22.359c3-1.9219 5.2031-4.9219 5.8594-8.4375 0.70312-3.5625 0.046875-7.2656-2.0156-10.266zm-346.92-98.484c-36.094 15.094-124.64 52.219-161.76 67.734l-70.594 74.109c-24.469 26.203 9.75 65.062 38.859 44.953l114.47-81.375c2.3906-1.6406 5.4844-2.625 8.4375-2.4375 2.5312 0.09375 5.5312 0.51562 7.6406 1.7812l257.44 155.63c3.0469 1.8281 5.8594 3.9844 8.4375 6.2812 19.078-34.641 18.047-77.578 27.938-117.61l-120.19-186c-22.875 7.6406-88.734 29.484-110.67 36.938zm18.656 259.18 129.84 79.312c18.516 10.969 43.969-1.1719 46.594-22.641 2.1562-12.422-3.8438-25.734-14.859-32.156l-250.18-151.26-107.81 76.594c-18.516 13.359-45.656 13.781-65.016 0.70312-28.781-18.469-33.656-62.391-9.4219-86.672 0 0 72.656-76.172 72.656-76.172 2.5781-3.375 21.891-10.078 25.875-12.141-9.3281-2.3906-111.84-28.594-124.13-31.734-26.391-4.1719-84.656-13.172-111.61-17.297l-104.95 162.28c10.922 28.734 31.219 83.953 44.719 121.82 6.1875 16.312 16.594 31.594 30.516 42.234 5.2969-7.3594 14.062-21.984 21.141-27.656 19.406-18.422 51.047-20.344 72.891-5.0625h0.14063c16.453 11.297 25.969 30.984 25.5 50.812 29.109-5.0156 59.25 13.828 66.75 42.656 19.031-10.688 43.641-9.3281 61.734 2.8594 10.969 7.7812 18.938 18.891 23.016 31.594 20.391-13.125 45.094-9.6094 65.812-0.14062l46.594 32.156 69.234 41.953c35.062 20.344 67.641-30.328 33.938-53.672l-107.91-68.953c-6.2812-4.0781-8.1562-12.516-4.0781-18.938 4.0781-6.2812 12.516-8.1562 18.797-4.0781l107.81 69.094 52.078 31.5c6.4219 3.7969 13.781 5.1562 21 4.0781 23.109-2.3906 35.391-31.969 21.141-50.156-3.8438-6.1406-13.547-10.547-19.359-14.438-11.672-6.9375-137.21-83.906-152.63-93.188-15.281-9.4688-1.0312-32.484 14.156-23.297zm-547.69-107.67c1.9219-3.0469 6.1875-9.4688 8.0156-12.516h0.14062l117.75-182.21 10.078-15.656c3.9375-6.2812 2.1562-14.719-4.2188-18.797l-59.297-38.297c-6.2344-3.9844-14.812-1.9688-18.797 4.0781l-1.0781 1.6406-134.76 208.74c-1.9219 3-2.5781 6.6562-1.9219 10.078 0.79688 3.5625 2.8594 6.6562 6 8.5781l59.297 38.438c6.2344 4.0312 14.859 2.2969 18.797-4.0781zm31.5-278.95c-9.2344 13.312-58.688 90.75-68.812 106.17v-585.56c0-28.219 23.016-51.234 51.375-51.234h765.84c28.219 0 51.234 23.016 51.234 51.234v585.56l-68.156-105.47c-11.531-18.375-38.344-24.562-56.391-12.141l-59.438 38.297c-12.469 8.5312-19.969 23.438-18.516 38.438-20.391 6.8438-89.906 30.188-109.17 36.656-23.953 9.9844-77.906 32.578-102.33 42.797-36.234-9.2812-123.14-31.547-160.26-41.016-24.188-3.8438-76.359-11.953-100.97-15.797 15.281-19.031 11.625-47.719-9.2812-61.031l-59.297-38.297c-18.188-11.766-43.969-7.125-55.828 11.391zm181.64-245.53c0 102.19 83.109 185.34 185.34 185.34 102.19 0 185.34-83.109 185.34-185.34-10.219-245.63-360.47-245.68-370.69 0zm27.234 0c0-87.094 70.875-157.92 158.06-157.92 87.094 0 158.06 70.875 158.06 157.92-8.625 209.63-307.5 209.72-316.13 0zm53.016 9.6562 64.172 64.172c5.4375 5.25 13.828 5.25 19.359 0l123.47-123.61c12.516-12.656-6.5156-31.922-19.219-19.359l-113.91 114.05-54.516-54.516c-12.562-12.469-31.922 6.5625-19.359 19.266z"/>
</svg>
