<?xml version="1.0" encoding="UTF-8"?>
<svg width="1200pt" height="1200pt" version="1.1" viewBox="0 0 1200 1200" xmlns="http://www.w3.org/2000/svg">
 <path d="m86.719 51.562h1026.6v131.27h-1026.6z"/>
 <path d="m238.77 1120.7 176-345.03 54.281 27.691-176 345.03z"/>
 <path d="m730.91 803.39 54.281-27.684 175.96 345.03-54.281 27.684z"/>
 <path d="m142.97 243.77v583.65h914.06v-583.65zm503.91 107.82h302.34v60.945h-302.34zm0 152.36h302.34v60.945h-302.34zm-157.03-152.36h82.031v60.945h-82.031zm0 152.36h82.031v60.945h-82.031zm-173.25-35.664c-26.914-10.41-54.242-25.59-54.242-59.109 0-26.113 16.559-47.047 44.684-54.441v-31.266h37.5v28.93c14.062 1.9258 27.98 7.0898 39.805 14.945l-14.414 37.609c-12.949-7.6836-26.574-14.242-41.992-14.242-15.582 0-21.133 7.7461-21.133 14.996 0 7.957 4.3516 13.285 30.141 23.816 35.629 14.336 51.504 33.453 51.504 61.984 0 22.605-13.441 48.387-46.254 57.043v32.754h-37.5v-30.59c-18.75-1.75-32.66-8.293-47.375-18.34l13.867-38.188c14.07 9.9062 29.516 17.812 47.164 17.812 14.922 0 25.004-7.4219 25.004-18.465-0.003906-8.707-4.4531-16.332-26.758-25.25zm255.29 251.31h-323.44v-60.945h323.44zm379.69 0h-304.69v-60.945h304.69z"/>
</svg>
