<?xml version="1.0" encoding="UTF-8"?>
<svg width="1200pt" height="1200pt" version="1.1" viewBox="0 0 1200 1200" xmlns="http://www.w3.org/2000/svg">
 <path d="m952.92 560.52c-4.3477-3.7188-9.8828-5.7617-15.602-5.7578h-262.8v-96h262.68c6.3672 0 12.469-2.5312 16.973-7.0312 4.5-4.5 7.0273-10.605 7.0273-16.969v-255.84c0-6.3672-2.5273-12.473-7.0273-16.973-4.5039-4.5-10.605-7.0273-16.973-7.0273h-262.68v-98.043c0-9.5469-3.793-18.703-10.543-25.453-6.7539-6.7539-15.91-10.547-25.457-10.547h-76.559c-9.5469 0-18.707 3.793-25.457 10.547-6.75 6.75-10.543 15.906-10.543 25.453v97.922h-263.76c-5.7773 0.003907-11.359 2.0898-15.719 5.8789l-148.44 129.12c-5.1641 4.5547-8.125 11.109-8.125 18 0 6.8867 2.9609 13.441 8.125 18l148.44 127.2c4.3477 3.7188 9.8789 5.7617 15.598 5.7617h263.4v96h-263.28c-6.3633 0-12.469 2.5273-16.969 7.0273s-7.0312 10.605-7.0312 16.973v256.2c0 6.3633 2.5312 12.469 7.0312 16.969s10.605 7.0312 16.969 7.0312h263.28v224.4h-93.48c-17.148 0-32.996 9.1484-41.57 24-8.5742 14.852-8.5742 33.148 0 48 8.5742 14.852 24.422 24 41.57 24h336c17.148 0 32.996-9.1484 41.57-24 8.5742-14.852 8.5742-33.148 0-48-8.5742-14.852-24.422-24-41.57-24h-93.48v-224.4h262.68c5.7227 0 11.254-2.043 15.602-5.7617l149.04-128.16c5.168-4.5547 8.125-11.109 8.125-18 0-6.8867-2.957-13.441-8.125-18zm-432-189.36c-4.2344 4.2344-9.9766 6.6133-15.961 6.6133-5.9883 0-11.73-2.3789-15.961-6.6133l-48-48c-6.2188-6.8516-8.457-16.43-5.918-25.328 2.5391-8.8945 9.4961-15.852 18.391-18.391 8.8984-2.5391 18.477-0.30078 25.328 5.918l26.16 26.641 67.559-67.559c5.0156-5.0078 11.812-7.8164 18.902-7.8164 7.0859 0 13.883 2.8086 18.898 7.8164 5.0039 5.0156 7.8164 11.812 7.8164 18.898 0 7.0859-2.8125 13.883-7.8164 18.898zm223.08 405.48c-5.0664 5.0938-11.957 7.957-19.141 7.957s-14.07-2.8633-19.141-7.957l-31.559-31.559-31.559 31.559c-5.0703 5.0938-11.957 7.957-19.141 7.957-7.1836 0-14.074-2.8633-19.141-7.957-5.0938-5.0664-7.957-11.957-7.957-19.141s2.8633-14.074 7.957-19.141l31.68-31.438-31.559-31.559v-0.003906c-6.8398-6.8359-9.5117-16.805-7.0078-26.145s9.8008-16.637 19.141-19.141c9.3398-2.5039 19.309 0.16797 26.145 7.0039l31.559 31.559 31.559-31.559h0.003906c6.8398-6.8164 16.793-9.4648 26.117-6.9531 9.3203 2.5156 16.594 9.8125 19.078 19.141 2.4844 9.332-0.19531 19.277-7.0352 26.094l-31.559 31.559 31.559 31.562c5.0547 5.0625 7.8945 11.926 7.8945 19.078 0 7.1562-2.8398 14.02-7.8945 19.082z"/>
</svg>
