<?xml version="1.0" encoding="UTF-8"?>
<svg width="1200pt" height="1200pt" version="1.1" viewBox="0 0 1200 1200" xmlns="http://www.w3.org/2000/svg">
 <path d="m790.45 577.49c-46.004-25.984-99.551-44.977-156.57-56.988-91.691 61.789-212.19 61.777-303.88 0-166.84 35.105-303.91 130.05-309.55 284.9v215.84h608.44c-25.777-45.195-40.52-97.492-40.52-153.25 0-133.21 84.098-246.77 202.09-290.51zm-9.0117 181.84c5.5234-5.4844 14.449-5.4609 19.934 0.050781 5.5117 5.5469 5.5234 14.387-0.23438 20.117-5.5234 5.4844-14.449 5.4609-19.934-0.050782-5.5117-5.5469-5.5234-14.375 0.23438-20.117zm116.66-172.8c155.45 0 281.47 126.01 281.47 281.47s-126.01 281.46-281.47 281.46c-155.46 0-281.47-126.01-281.47-281.46s126.01-281.47 281.47-281.47zm-39.844 301.05c-36.93 16.371-81.688 9.4297-111.96-20.852-39.293-39.293-39.293-103 0-142.31 39.293-39.293 103.02-39.293 142.31 0 30.27 30.27 37.211 75.035 20.852 111.96l159.62 159.62-6.9062 34.738-64.898-4.1523-24.258-24.258v-30.82h-30.82l-3.4023-3.4023v-30.832h-30.82l-49.715-49.715zm-376.31-837.05c134.75 0 244 109.25 244 244 0 134.75-109.25 244-244 244s-244-109.25-244-244c0-134.75 109.24-244 244-244z" fill-rule="evenodd"/>
</svg>
