<?xml version="1.0" encoding="UTF-8"?>
<svg width="1200pt" height="1200pt" version="1.1" viewBox="0 0 1200 1200" xmlns="http://www.w3.org/2000/svg">
 <path d="m722.48 575h-97.477v-97.477c48.898 9.9766 87.5 48.578 97.477 97.477zm-147.48 147.48v-97.477h-97.477c9.9766 48.898 48.578 87.5 97.477 97.477zm50 0c48.898-9.9766 87.5-48.574 97.477-97.477h-97.477zm-147.48-147.48h97.477v-97.477c-48.898 9.9766-87.5 48.578-97.477 97.477zm472.48 25c0 193-157 350-350 350s-350-157-350-350 157-350 350-350 350 157 350 350zm-50 0c0-13.824-11.176-25-25-25h-102c-11.023-76.477-71.523-136.98-148-148v-102c0-13.824-11.176-25-25-25s-25 11.176-25 25v102c-76.477 11.023-136.98 71.523-148 148h-102c-13.824 0-25 11.176-25 25s11.176 25 25 25h102c11.023 76.477 71.523 136.98 148 148v102c0 13.824 11.176 25 25 25s25-11.176 25-25v-102c76.477-11.023 136.98-71.523 148-148h102c13.824 0 25-11.176 25-25zm200 0c0 275.7-224.3 500-500 500s-500-224.3-500-500 224.3-500 500-500 500 224.3 500 500zm-100 0c0-220.55-179.45-400-400-400s-400 179.45-400 400 179.45 400 400 400 400-179.45 400-400z"/>
</svg>
