<?xml version="1.0" encoding="UTF-8"?>
<svg width="1200pt" height="1200pt" version="1.1" viewBox="0 0 1200 1200" xmlns="http://www.w3.org/2000/svg">
 <path d="m656.25 937.5h300v-262.5h-300zm42.992-144.51c3.5156-3.5156 8.2852-5.4922 13.258-5.4922s9.7422 1.9766 13.258 5.4922l43.98 43.973 118.07-101.2v0.003906c5.0859-4.3594 12.113-5.6719 18.426-3.4453 6.3164 2.2266 10.965 7.6523 12.195 14.238 1.2305 6.582-1.1445 13.32-6.2305 17.68l-131.25 112.5c-3.5859 3.0742-8.1992 4.6797-12.918 4.4961-4.7188-0.17969-9.1953-2.1367-12.535-5.4766l-56.25-56.25c-3.5156-3.5156-5.4922-8.2852-5.4922-13.258s1.9766-9.7422 5.4922-13.258zm-455.49-117.99h37.5v37.5h-37.5zm900-375v-131.25c0-4.9727-1.9727-9.7422-5.4922-13.258-3.5156-3.5195-8.2852-5.4922-13.258-5.4922h-1050c-4.9727 0-9.7422 1.9727-13.258 5.4922-3.5195 3.5156-5.4922 8.2852-5.4922 13.258v131.25zm-843.75-93.75c4.9727 0 9.7422 1.9766 13.258 5.4922 3.5156 3.5156 5.4922 8.2852 5.4922 13.258s-1.9766 9.7422-5.4922 13.258c-3.5156 3.5156-8.2852 5.4922-13.258 5.4922s-9.7422-1.9766-13.258-5.4922c-3.5156-3.5156-5.4922-8.2852-5.4922-13.258s1.9766-9.7422 5.4922-13.258c3.5156-3.5156 8.2852-5.4922 13.258-5.4922zm-75 0c4.9727 0 9.7422 1.9766 13.258 5.4922 3.5156 3.5156 5.4922 8.2852 5.4922 13.258s-1.9766 9.7422-5.4922 13.258c-3.5156 3.5156-8.2852 5.4922-13.258 5.4922s-9.7422-1.9766-13.258-5.4922c-3.5156-3.5156-5.4922-8.2852-5.4922-13.258s1.9766-9.7422 5.4922-13.258c3.5156-3.5156 8.2852-5.4922 13.258-5.4922zm-75 0c4.9727 0 9.7422 1.9766 13.258 5.4922 3.5156 3.5156 5.4922 8.2852 5.4922 13.258s-1.9766 9.7422-5.4922 13.258c-3.5156 3.5156-8.2852 5.4922-13.258 5.4922s-9.7422-1.9766-13.258-5.4922c-3.5156-3.5156-5.4922-8.2852-5.4922-13.258s1.9766-9.7422 5.4922-13.258c3.5156-3.5156 8.2852-5.4922 13.258-5.4922zm-93.75 131.25v693.75c0 4.9727 1.9727 9.7422 5.4922 13.258 3.5156 3.5195 8.2852 5.4922 13.258 5.4922h1050c4.9727 0 9.7422-1.9727 13.258-5.4922 3.5195-3.5156 5.4922-8.2852 5.4922-13.258v-693.75zm337.5 93.75h262.5c6.6992 0 12.887 3.5742 16.238 9.375 3.3477 5.8008 3.3477 12.949 0 18.75-3.3516 5.8008-9.5391 9.375-16.238 9.375h-262.5c-6.6992 0-12.887-3.5742-16.238-9.375-3.3477-5.8008-3.3477-12.949 0-18.75 3.3516-5.8008 9.5391-9.375 16.238-9.375zm-75 506.25c0 4.9727-1.9727 9.7422-5.4922 13.258-3.5156 3.5195-8.2852 5.4922-13.258 5.4922h-75c-4.9727 0-9.7422-1.9727-13.258-5.4922-3.5195-3.5156-5.4922-8.2852-5.4922-13.258v-75c0-4.9727 1.9727-9.7422 5.4922-13.258 3.5156-3.5195 8.2852-5.4922 13.258-5.4922h75c4.9727 0 9.7422 1.9727 13.258 5.4922 3.5195 3.5156 5.4922 8.2852 5.4922 13.258zm0-206.25c0 4.9727-1.9727 9.7422-5.4922 13.258-3.5156 3.5195-8.2852 5.4922-13.258 5.4922h-75c-4.9727 0-9.7422-1.9727-13.258-5.4922-3.5195-3.5156-5.4922-8.2852-5.4922-13.258v-75c0-4.9727 1.9727-9.7422 5.4922-13.258 3.5156-3.5195 8.2852-5.4922 13.258-5.4922h75c4.9727 0 9.7422 1.9727 13.258 5.4922 3.5195 3.5156 5.4922 8.2852 5.4922 13.258zm0-206.25c0 4.9727-1.9727 9.7422-5.4922 13.258-3.5156 3.5195-8.2852 5.4922-13.258 5.4922h-75c-4.9727 0-9.7422-1.9727-13.258-5.4922-3.5195-3.5156-5.4922-8.2852-5.4922-13.258v-75c0-4.9727 1.9727-9.7422 5.4922-13.258 3.5156-3.5195 8.2852-5.4922 13.258-5.4922h75c4.9727 0 9.7422 1.9727 13.258 5.4922 3.5195 3.5156 5.4922 8.2852 5.4922 13.258zm225 431.25h-150c-6.6992 0-12.887-3.5742-16.238-9.375-3.3477-5.8008-3.3477-12.949 0-18.75 3.3516-5.8008 9.5391-9.375 16.238-9.375h150c6.6992 0 12.887 3.5742 16.238 9.375 3.3477 5.8008 3.3477 12.949 0 18.75-3.3516 5.8008-9.5391 9.375-16.238 9.375zm-168.75-93.75c0-4.9727 1.9727-9.7422 5.4922-13.258 3.5156-3.5195 8.2852-5.4922 13.258-5.4922h112.5c6.6992 0 12.887 3.5742 16.238 9.375 3.3477 5.8008 3.3477 12.949 0 18.75-3.3516 5.8008-9.5391 9.375-16.238 9.375h-112.5c-4.9727 0-9.7422-1.9727-13.258-5.4922-3.5195-3.5156-5.4922-8.2852-5.4922-13.258zm168.75-112.5h-150c-6.6992 0-12.887-3.5742-16.238-9.375-3.3477-5.8008-3.3477-12.949 0-18.75 3.3516-5.8008 9.5391-9.375 16.238-9.375h150c6.6992 0 12.887 3.5742 16.238 9.375 3.3477 5.8008 3.3477 12.949 0 18.75-3.3516 5.8008-9.5391 9.375-16.238 9.375zm-168.75-93.75c0-4.9727 1.9727-9.7422 5.4922-13.258 3.5156-3.5195 8.2852-5.4922 13.258-5.4922h56.25c6.6992 0 12.887 3.5742 16.238 9.375 3.3477 5.8008 3.3477 12.949 0 18.75-3.3516 5.8008-9.5391 9.375-16.238 9.375h-56.25c-4.9727 0-9.7422-1.9727-13.258-5.4922-3.5195-3.5156-5.4922-8.2852-5.4922-13.258zm618.75 300c0 4.9727-1.9727 9.7422-5.4922 13.258-3.5156 3.5195-8.2852 5.4922-13.258 5.4922h-337.5c-4.9727 0-9.7422-1.9727-13.258-5.4922-3.5195-3.5156-5.4922-8.2852-5.4922-13.258v-300c0-4.9727 1.9727-9.7422 5.4922-13.258 3.5156-3.5195 8.2852-5.4922 13.258-5.4922h337.5c4.9727 0 9.7422 1.9727 13.258 5.4922 3.5195 3.5156 5.4922 8.2852 5.4922 13.258zm-18.75-412.5h-581.25c-6.6992 0-12.887-3.5742-16.238-9.375-3.3477-5.8008-3.3477-12.949 0-18.75 3.3516-5.8008 9.5391-9.375 16.238-9.375h581.25c6.6992 0 12.887 3.5742 16.238 9.375 3.3477 5.8008 3.3477 12.949 0 18.75-3.3516 5.8008-9.5391 9.375-16.238 9.375zm-731.25-75h37.5v37.5h-37.5zm0 412.5h37.5v37.5h-37.5z"/>
</svg>
