<?xml version="1.0" encoding="UTF-8"?>
<svg width="1200pt" height="1200pt" version="1.1" viewBox="0 0 1200 1200" xmlns="http://www.w3.org/2000/svg">
 <path d="m1021.5 453.91c-15.637-11.375-32.473-21.121-50.281-29.074v-323.52l50.281 40.5v312.1zm-450.79 236.81-30.973 8.4961-30.973-8.4961c-66.574-16.656-135.89-23.051-204.37-19.969-50.52 2.2695-107.26 9.8516-155.52 25.668l-20.305 6.6602c-4.8711 1.5977-9.7695 0.82812-13.922-2.1719-4.1523-3.0117-6.4062-7.4141-6.4062-12.539v-587.05l-50.281 40.5 0.003907 594.42c0 8.5312 6.9609 15.492 15.492 15.492h513.77c-5.4727-20.52-8.5938-41.566-9.2773-62.773-2.4102 0.57422-4.8359 1.1641-7.2461 1.7656zm550.37 446.24c-20.016 11.555-45.863 4.6328-57.422-15.383l-80.09-138.72c-4.2461-7.3672-3.3359-16.332 1.6094-22.656l-11.762-20.375c-10.246-17.746-30.516-26.051-50.281-20.578-41.23 11.41-85.957 12.312-130.27 0.43359-132.48-35.496-211.09-171.66-175.6-304.14 35.496-132.47 171.66-211.09 304.14-175.6 132.47 35.496 211.09 171.66 175.6 304.14-11.867 44.316-35.016 82.609-65.52 112.61-14.617 14.375-17.555 36.086-7.3086 53.832l11.762 20.375c7.957-1.1172 16.176 2.5664 20.438 9.9375l80.09 138.72c11.555 20.027 4.6328 45.863-15.383 57.422zm-80.688-408.06c27.121-101.21-32.941-205.23-134.15-232.36-101.21-27.121-205.23 32.941-232.36 134.15-27.121 101.21 32.941 205.23 134.15 232.36 101.21 27.121 205.23-32.941 232.36-134.15zm-901.16-61.918v-576.53c48.562-48.637 274.5-45.18 385.02 21.312v550.94c-163.61-43.008-315.04-18.672-385.02 4.2617zm48.086-509.05c1.4141 8.4102 9.4688 14.027 17.965 12.504 74.473-13.355 159.17-7.8594 251.71 16.355 1.3086 0.33594 2.7227 0.51562 4.0312 0.51562 6.8633 0 13.066-4.6211 14.914-11.566 2.1719-8.2695-2.832-16.738-11.102-18.91-97.008-25.344-186.17-31.031-265.11-16.859-8.3867 1.5117-13.934 9.5625-12.406 17.977zm0 83.688c1.5234 8.3867 9.6836 13.922 18.07 12.336 74.473-14.113 159.17-9.457 251.82 13.836 1.1992 0.32422 2.5078 0.48047 3.8164 0.48047 6.8633 0 13.176-4.6914 14.914-11.711 2.0625-8.293-2.9414-16.715-11.207-18.805-97.008-24.395-186.17-29.172-265.11-14.242-8.3867 1.5977-13.934 9.6953-12.301 18.109zm0 83.676c1.6328 8.3984 9.8047 13.836 18.18 12.156 74.473-14.844 159.17-11.016 251.82 11.34 1.1992 0.28906 2.3984 0.43359 3.707 0.43359 6.9727 0 13.285-4.7656 15.023-11.855 1.957-8.3047-3.1562-16.68-11.438-18.695-97.008-23.426-186.28-27.324-265.11-11.605-8.3867 1.6797-13.824 9.8281-12.191 18.215zm0 83.688c1.7383 8.375 10.02 13.738 18.395 11.988 74.473-15.602 159.17-12.625 251.71 8.832 1.1992 0.27734 2.3984 0.40625 3.5898 0.40625 6.9727 0 13.391-4.8359 15.023-12 1.957-8.3281-3.2656-16.645-11.652-18.59-97.008-22.477-186.17-25.488-265.11-8.9766-8.2812 1.7539-13.715 9.9609-11.977 18.336zm276.97 71.578c-95.699-21.227-187.37-23.449-265.11-6.3945-8.3867 1.8359-13.609 10.094-11.762 18.445 1.8477 8.3633 10.02 13.645 18.395 11.809 73.379-16.094 160.37-13.883 251.71 6.3828 1.1992 0.25391 2.293 0.38281 3.4805 0.38281 7.0781 0 13.5-4.9219 15.023-12.145 1.8477-8.3633-3.3711-16.621-11.762-18.48zm-6.5273 111.13c1.0938 0.22656 2.1719 0.33594 3.2656 0.33594 7.0781 0 13.609-5.0039 15.133-12.289 1.7383-8.375-3.5898-16.598-11.977-18.359-97.223-20.473-186.39-21.695-265.11-3.6602-8.3867 1.9219-13.609 10.223-11.652 18.562 1.957 8.3281 10.234 13.547 18.504 11.641 74.363-17.051 159.06-15.781 251.82 3.7695zm179.41-84.121c-22.922 29.281-39.961 63.145-49.812 99.926-4.3789 16.332-7.2227 32.879-8.6055 49.453-7.8125 1.7656-15.66 3.6719-23.531 5.7461v-550.93c110.52-66.492 336.46-69.949 385.02-21.312v322.7c-3.5742-1.1172-7.1758-2.1602-10.812-3.1328-12.324-3.3008-24.781-5.7461-37.285-7.332-1.2344-5.8555-5.8203-10.727-11.977-12.035-78.938-16.512-168.1-13.5-265.11 8.9766-8.3867 1.9453-13.609 10.262-11.652 18.59 1.6328 7.1641 8.0508 12 15.023 12 1.1992 0 2.3984-0.13281 3.5898-0.40625 55.859-12.961 108.86-19.164 158.5-18.625-21.828 6.2383-43.008 15.168-63.047 26.746-16.094 9.2891-31.078 20.062-44.809 32.113-18.949 2.7344-38.137 6.2539-57.504 10.547-8.3867 1.8477-13.609 10.117-11.762 18.48 1.5234 7.2109 7.9453 12.145 15.023 12.145 1.1992 0 2.293-0.13281 3.4805-0.38281 5.1016-1.1289 10.176-2.1953 15.238-3.2148zm-33.637-331.86c1.8477 6.9609 8.0508 11.566 14.914 11.566 1.3086 0 2.7227-0.17969 4.0312-0.51562 92.543-24.215 177.24-29.711 251.71-16.355 8.4961 1.5117 16.547-4.0938 17.965-12.504 1.5234-8.4102-4.0312-16.465-12.406-17.977-78.938-14.16-168.1-8.4844-265.11 16.859-8.2695 2.1719-13.285 10.633-11.102 18.91zm276.32 47.785c-78.938-14.941-168.1-10.164-265.11 14.242-8.2812 2.0898-13.285 10.512-11.207 18.805 1.7383 7.0195 8.0508 11.711 14.914 11.711 1.3086 0 2.6172-0.15625 3.8164-0.48047 92.652-23.293 177.36-27.949 251.82-13.836 8.3867 1.5859 16.547-3.9375 18.07-12.336 1.6328-8.3984-3.9258-16.5-12.301-18.109zm-276.43 113.87c1.7383 7.0938 8.0508 11.855 15.023 11.855 1.3086 0 2.5078-0.14453 3.707-0.43359 92.652-22.367 177.35-26.184 251.82-11.34 8.3867 1.6797 16.547-3.7695 18.18-12.156 1.6328-8.3867-3.8164-16.535-12.191-18.215-78.828-15.719-168.1-11.82-265.11 11.605-8.2812 2.0156-13.391 10.391-11.438 18.695z" fill-rule="evenodd"/>
</svg>
