<?xml version="1.0" encoding="UTF-8"?>
<svg width="1200pt" height="1200pt" version="1.1" viewBox="0 0 1200 1200" xmlns="http://www.w3.org/2000/svg">
 <path d="m375 450c0 62.133-50.367 112.5-112.5 112.5s-112.5-50.367-112.5-112.5 50.367-112.5 112.5-112.5 112.5 50.367 112.5 112.5"/>
 <path d="m337.5 562.5h-150c-62.035 0-112.5 50.465-112.5 112.5v37.5c0 20.711 16.789 37.5 37.5 37.5h300c20.711 0 37.5-16.789 37.5-37.5v-37.5c0-62.035-50.465-112.5-112.5-112.5z"/>
 <path d="m640.39 252.61-205.17 87.93c-19.023 8.1484-27.852 30.195-19.684 49.238 6.0781 14.211 19.922 22.742 34.48 22.742 4.9258 0 9.9414-0.98828 14.758-3.0586l207.39-88.883c-16.168-20.305-27.07-43.207-31.777-67.969z"/>
 <path d="m900 75c-128.27 0-225 64.488-225 150s96.727 150 225 150 225-64.488 225-150-96.727-150-225-150z"/>
 <path d="m637.5 600c0-13.055 1.7383-25.699 4.9648-37.875-40.902-0.097656-101.5 0.22266-117.79 0.375-20.711 0.18359-37.355 17.121-37.172 37.828 0.18359 20.602 16.938 37.172 37.5 37.172h0.32812c31.703-0.28906 83.258-0.44141 116.98-0.375-3.1016-11.945-4.8125-24.332-4.8125-37.125z"/>
 <path d="m900 450c-128.27 0-225 64.488-225 150s96.727 150 225 150 225-64.488 225-150-96.727-150-225-150z"/>
 <path d="m664.27 890.21-197.5-98.75c-18.566-9.2656-41.051-1.7383-50.316 16.773-9.2656 18.531-1.7578 41.051 16.773 50.316l205.19 102.59c2.4023-25.66 11.379-49.539 25.855-70.934z"/>
 <path d="m900 825c-128.27 0-225 64.488-225 150s96.727 150 225 150 225-64.488 225-150-96.727-150-225-150z"/>
</svg>
