<?xml version="1.0" encoding="UTF-8"?>
<svg width="1200pt" height="1200pt" version="1.1" viewBox="0 0 1200 1200" xmlns="http://www.w3.org/2000/svg">
 <path d="m1024.2 746.77c-50.379-50.52-109.37-91.648-174.19-121.45-69.438 60.121-158.21 93.215-250.07 93.215-91.852 0-180.63-33.094-250.07-93.215-104.36 48.035-192.77 124.96-254.78 221.67-62.008 96.715-95.016 209.16-95.117 324.05h1200c0.21094-78.828-15.219-156.91-45.391-229.74-30.172-72.824-74.492-138.94-130.39-194.52z"/>
 <path d="m907.03 335.95c0-10.465-0.53125-20.926-1.5938-31.336-0.53125-5.1562-1.1797-10.273-1.9453-15.352-1.1719-7.6094-2.6172-15.125-4.3359-22.547s-3.7031-14.734-5.9531-21.938c-0.75-2.4062-1.5312-4.7969-2.3438-7.1719-1.5625-4.6875-3.2891-9.375-5.1797-14.062-2.7656-7-5.8047-13.859-9.1172-20.578-2.1562-4.4688-4.4219-8.8828-6.7969-13.242-2.375-4.3594-4.7969-8.6406-7.2656-12.844-17.949-29.488-40.711-55.766-67.336-77.742-54.918-45.371-123.93-70.191-195.16-70.191s-140.25 24.82-195.16 70.191c-26.625 21.977-49.387 48.254-67.336 77.742-2.5625 4.2188-5.0312 8.5078-7.4062 12.867s-4.5938 8.7656-6.6562 13.219c-3.2344 6.7031-6.2344 13.547-9 20.531-1.8281 4.6875-3.5547 9.375-5.1797 14.062-0.8125 2.375-1.5938 4.7656-2.3438 7.1719-2.25 7.2031-4.2344 14.516-5.9531 21.938s-3.1641 14.938-4.3359 22.547c-0.78125 5.0781-1.4297 10.195-1.9453 15.352-1.0625 10.41-1.5938 20.871-1.5938 31.336 0 169.29 137.72 307.03 307.03 307.03s306.91-137.7 306.91-306.98z"/>
</svg>
