<?xml version="1.0" encoding="UTF-8"?>
<svg width="1200pt" height="1200pt" version="1.1" viewBox="0 0 1200 1200" xmlns="http://www.w3.org/2000/svg">
 <path d="m72.656 189.61h472.07c3.8594 0.023437 7.3438 1.4805 10.09 4.2695l130.08 130.08c2.6914 2.6602 4.2383 6.168 4.2383 10.062v662.31c0 7.7656-6.2969 14.062-14.062 14.062h-602.42c-7.7656 0-14.062-6.2969-14.062-14.062v-792.66c0-7.7617 6.2969-14.062 14.062-14.062zm813.82 396.33c7.7656 0 14.062 6.2969 14.062 14.062s-6.2969 14.062-14.062 14.062h-82.023v411.2h82.023c7.7656 0 14.062 6.2969 14.062 14.062s-6.2969 14.062-14.062 14.062h-96.086c-7.7656 0-14.062-6.2969-14.062-14.062l-0.003906-425.27h-58.109c-7.7656 0-14.062-6.2969-14.062-14.062s6.2969-14.062 14.062-14.062h58.109v-425.27c0-7.7656 6.2969-14.062 14.062-14.062h96.086c7.7656 0 14.062 6.2969 14.062 14.062s-6.2969 14.062-14.062 14.062h-82.023l0.003906 411.2zm191.98 379.43v72.852c0 10.184-11.195 18.438-22.156 11.5l-20.051-11.336-19.773 11.863c-9.3906 5.625-21.223-1.2578-21.215-12.031h-0.042969v-72.852h-34.824l-0.003906 147.91h152.89v-147.91zm-55.113 0h26.988v48.828c-7.0508-3.9844-13.316-8.9141-21.5-4.0273l-0.011719-0.019531-5.4766 3.2852zm-77.012-28.125h181.01c7.7656 0 14.062 6.2969 14.062 14.062v176.04c0 7.7656-6.2969 14.062-14.062 14.062h-181.01c-7.7656 0-14.062-6.2969-14.062-14.062v-176.04c-0.003906-7.7656 6.293-14.062 14.062-14.062zm132.12-411.2v72.852c0 10.184-11.195 18.438-22.156 11.5l-20.051-11.336-19.773 11.863c-9.3906 5.625-21.223-1.2578-21.215-12.031h-0.042969v-72.852h-34.824v147.91h152.89v-147.91zm-55.113 0h26.988v48.828c-7.0508-3.9844-13.316-8.9141-21.5-4.0273l-0.011719-0.019531-5.4766 3.2852zm-77.012-28.125h181.01c7.7656 0 14.062 6.2969 14.062 14.062v176.04c0 7.7656-6.2969 14.062-14.062 14.062h-181.01c-7.7656 0-14.062-6.2969-14.062-14.062v-176.04c-0.003906-7.7695 6.293-14.062 14.062-14.062zm132.12-411.2v72.852c0 10.18-11.195 18.438-22.156 11.5l-20.051-11.332-19.773 11.863c-9.3906 5.625-21.223-1.2578-21.215-12.031h-0.042969l-0.003906-72.852h-34.824v147.91h152.89v-147.91zm-55.113 0h26.988v48.828c-7.0508-3.9844-13.316-8.9141-21.5-4.0273l-0.011719-0.019531-5.4766 3.2852zm-77.012-28.125h181.01c7.7656 0 14.062 6.2969 14.062 14.062v176.04c0 7.7656-6.2969 14.062-14.062 14.062h-181.01c-7.7656 0-14.062-6.2969-14.062-14.062v-176.04c-0.003906-7.7656 6.293-14.062 14.062-14.062zm-772.27 855.23h148c7.7656 0 14.062-6.2969 14.062-14.062s-6.2969-14.062-14.062-14.062h-148c-7.7656 0-14.062 6.2969-14.062 14.062s6.2969 14.062 14.062 14.062zm0-66.012h402.53c7.7656 0 14.062-6.2969 14.062-14.062s-6.2969-14.062-14.062-14.062h-402.53c-7.7656 0-14.062 6.2969-14.062 14.062s6.2969 14.062 14.062 14.062zm0-66.012h402.53c7.7656 0 14.062-6.2969 14.062-14.062s-6.2969-14.062-14.062-14.062h-402.53c-7.7656 0-14.062 6.2969-14.062 14.062s6.2969 14.062 14.062 14.062zm0-66.016h402.53c7.7656 0 14.062-6.2969 14.062-14.062s-6.2969-14.062-14.062-14.062h-402.53c-7.7656 0-14.062 6.2969-14.062 14.062 0 7.7695 6.2969 14.062 14.062 14.062zm219.16-93.129h180.43c7.7656 0 14.062-6.2969 14.062-14.062s-6.2969-14.062-14.062-14.062h-180.43c-7.7656 0-14.062 6.2969-14.062 14.062 0 7.7617 6.2969 14.062 14.062 14.062zm0-57.211h180.43c7.7656 0 14.062-6.2969 14.062-14.062 0-7.7656-6.2969-14.062-14.062-14.062h-180.43c-7.7656 0-14.062 6.2969-14.062 14.062 0 7.7656 6.2969 14.062 14.062 14.062zm0-57.211h180.43c7.7656 0 14.062-6.2969 14.062-14.062s-6.2969-14.062-14.062-14.062h-180.43c-7.7656 0-14.062 6.2969-14.062 14.062s6.2969 14.062 14.062 14.062zm0-57.211h79.215c7.7656 0 14.062-6.2969 14.062-14.062 0-7.7656-6.2969-14.062-14.062-14.062h-79.215c-7.7656 0-14.062 6.2969-14.062 14.062 0 7.7695 6.2969 14.062 14.062 14.062zm-107.99 14.414c35.863-36.461 9.8828-98.32-41.203-98.32-51.086 0-77.066 61.859-41.203 98.32-25.875 14.656-42.832 42.266-42.832 73.18v69.977c0 7.7656 6.2969 14.062 14.062 14.062h139.95c7.7656 0 14.062-6.2969 14.062-14.062v-69.977c-0.003906-30.914-16.961-58.52-42.836-73.18zm-41.203 17.273c-30.723 0-55.91 25.188-55.91 55.91v55.91h111.82v-55.91c0-30.727-25.184-55.91-55.91-55.91zm20.984-78.781c-18.637-18.637-50.652-5.3828-50.652 20.98 0 26.406 32.059 39.578 50.652 20.98 11.582-11.578 11.582-30.375 0-41.961zm395.99-55.852h-116.29c-7.7656 0-14.062-6.2969-14.062-14.062v-116.29h-443.95v764.54h574.3zm-102.22-110.46v82.34h82.34z" fill-rule="evenodd"/>
</svg>
