<?xml version="1.0" encoding="UTF-8"?>
<svg width="1200pt" height="1200pt" version="1.1" viewBox="0 0 1200 1200" xmlns="http://www.w3.org/2000/svg">
 <path d="m81 600c210 427.5 828 427.13 1038 0-210-427.5-828-427.13-1038 0zm519 250.87c-66.75 1.2188-131.11-24.891-178.22-72.234-47.062-47.391-72.75-111.89-71.156-178.64 0.14062-66.422 26.672-130.03 73.734-176.86 47.109-46.875 110.86-73.078 177.28-72.891 66.375 0.1875 130.03 26.719 176.81 73.828 46.828 47.109 73.031 110.91 72.797 177.28-0.1875 66.422-26.812 130.03-73.922 176.81-47.109 46.781-110.91 72.938-177.32 72.703zm175.87-250.87c-12.047 242.48-352.82 222.71-350.26 0-2.2969-224.06 338.53-241.22 350.26 0z"/>
</svg>
